<?xml version="1.0" standalone="no"?>
<svg xmlns="http://www.w3.org/2000/svg" viewBox="0 0 166.72 170.30427878253198" width="166.72" height="170.30427878253198"><rect fill="none" stroke="#f5a82b" stroke-width="4" width="162.72" height="166.30427878253198" x="2" y="2"></rect><g fill="#f5a82b" color="#f5a82b" transform="translate(58.36 12) scale(0.5)"><svg width="100.0" height="100.0" x="0.0" y="0.0" viewBox="0 0 100 100"><g><path d="M35.506,7.728c-0.358,1.49-1.22,5.102-1.499,6.52c-0.854,4.343-1.619,10.317,0.238,17.702   c2.125,8.453,4.238,16.338,5.181,21.879c1.456,8.555,2.883,25.324-2.563,34.615c-0.961,2.243-1.281,4.485,2.243,4.485h2.624   c0,0,15.855,0,19.379,0c3.523,0,3.204-2.242,2.243-4.485c-5.447-9.291-3.938-26.047-2.563-34.615   c0.888-5.531,3.102-14.932,4.833-21.879c1.84-7.389,1.369-13.344,0.586-17.702c-0.254-1.41-1.174-5.086-1.544-6.597   c-0.106-0.431-0.301-0.579-0.579-0.579c-6.717,0-21.359,0-27.905,0.058C35.876,7.132,35.604,7.319,35.506,7.728z"></path></g></svg></g><path fill="#f5a82b" fill-rule="nonzero" d="M14.64 28.48Q10.48 28.48 7.14 26.64Q3.80 24.80 1.90 21.54Q0 18.28 0 14.24L0 14.24Q0 10.20 1.90 6.94Q3.80 3.68 7.16 1.84Q10.52 0 14.68 0L14.68 0Q17.80 0 20.44 1.04Q23.08 2.08 24.92 4.08L24.92 4.08L23.04 5.96Q19.76 2.64 14.76 2.64L14.76 2.64Q11.44 2.64 8.72 4.16Q6 5.68 4.46 8.32Q2.92 10.96 2.92 14.24L2.92 14.24Q2.92 17.52 4.46 20.16Q6 22.80 8.72 24.32Q11.44 25.84 14.76 25.84L14.76 25.84Q19.80 25.84 23.04 22.48L23.04 22.48L24.92 24.36Q23.08 26.36 20.42 27.42Q17.76 28.48 14.64 28.48L14.64 28.48ZM42.68 0Q48.12 0 51.26 3.18Q54.40 6.36 54.40 12.36L54.40 12.36L54.40 28.24L51.48 28.24L51.48 20L33.88 20L33.88 28.24L31 28.24L31 12.36Q31 6.36 34.14 3.18Q37.28 0 42.68 0L42.68 0ZM33.88 17.44L51.48 17.44L51.48 12.08Q51.48 7.40 49.16 5.02Q46.84 2.64 42.68 2.64L42.68 2.64Q38.52 2.64 36.20 5.02Q33.88 7.40 33.88 12.08L33.88 12.08L33.88 17.44ZM64.68 25.68L83.68 25.68L83.68 28.24L60.72 28.24L60.72 26.36L69.44 15.24L63.24 15.24L63.24 12.76L71.36 12.76L79.16 2.80L60.84 2.80L60.84 0.24L83.08 0.24L83.08 2.08L74.72 12.80L80.52 12.80L80.52 15.28L72.80 15.28L64.68 25.68ZM91.12 25.68L110.12 25.68L110.12 28.24L87.16 28.24L87.16 26.36L95.88 15.24L89.68 15.24L89.68 12.76L97.80 12.76L105.60 2.80L87.28 2.80L87.28 0.24L109.52 0.24L109.52 2.08L101.16 12.80L106.96 12.80L106.96 15.28L99.24 15.28L91.12 25.68ZM128.04 28.48Q123.88 28.48 120.50 26.62Q117.12 24.76 115.22 21.52Q113.32 18.28 113.32 14.24L113.32 14.24Q113.32 10.20 115.22 6.96Q117.12 3.72 120.50 1.86Q123.88 0 128.04 0L128.04 0Q132.20 0 135.54 1.84Q138.88 3.68 140.80 6.94Q142.72 10.20 142.72 14.24L142.72 14.24Q142.72 18.28 140.80 21.54Q138.88 24.80 135.54 26.64Q132.20 28.48 128.04 28.48L128.04 28.48ZM128.04 25.84Q131.36 25.84 134.04 24.34Q136.72 22.84 138.24 20.18Q139.76 17.52 139.76 14.24L139.76 14.24Q139.76 10.96 138.24 8.30Q136.72 5.64 134.04 4.14Q131.36 2.64 128.04 2.64L128.04 2.64Q124.72 2.64 122.02 4.14Q119.32 5.64 117.78 8.30Q116.24 10.96 116.24 14.24L116.24 14.24Q116.24 17.52 117.78 20.18Q119.32 22.84 122.02 24.34Q124.72 25.84 128.04 25.84L128.04 25.84Z" transform="translate(12 77) scale(1)"></path><path fill="#f5a82b" fill-rule="nonzero" d="M0 28.24L0 0.24L11.40 0.24Q15.84 0.24 19.24 2.02Q22.64 3.80 24.52 6.98Q26.40 10.16 26.40 14.24L26.40 14.24Q26.40 18.32 24.52 21.50Q22.64 24.68 19.24 26.46Q15.84 28.24 11.40 28.24L11.40 28.24L0 28.24ZM2.96 25.68L11.24 25.68Q14.92 25.68 17.68 24.22Q20.44 22.76 21.96 20.18Q23.48 17.60 23.48 14.24L23.48 14.24Q23.48 10.88 21.96 8.30Q20.44 5.72 17.68 4.26Q14.92 2.80 11.24 2.80L11.24 2.80L2.96 2.80L2.96 25.68ZM44.32 2.80L38.64 2.80L38.64 25.68L44.32 25.68L44.32 28.24L30.04 28.24L30.04 25.68L35.72 25.68L35.72 2.80L30.04 2.80L30.04 0.24L44.32 0.24L44.32 2.80ZM62.60 28.48Q58.44 28.48 55.10 26.64Q51.76 24.80 49.86 21.54Q47.96 18.28 47.96 14.24L47.96 14.24Q47.96 10.20 49.86 6.94Q51.76 3.68 55.12 1.84Q58.48 0 62.64 0L62.64 0Q65.76 0 68.40 1.04Q71.04 2.08 72.88 4.08L72.88 4.08L71 5.96Q67.72 2.64 62.72 2.64L62.72 2.64Q59.40 2.64 56.68 4.16Q53.96 5.68 52.42 8.32Q50.88 10.96 50.88 14.24L50.88 14.24Q50.88 17.52 52.42 20.16Q53.96 22.80 56.68 24.32Q59.40 25.84 62.72 25.84L62.72 25.84Q67.76 25.84 71 22.48L71 22.48L72.88 24.36Q71.04 26.36 68.38 27.42Q65.72 28.48 62.60 28.48L62.60 28.48ZM90.68 2.80L85 2.80L85 25.68L90.68 25.68L90.68 28.24L76.40 28.24L76.40 25.68L82.08 25.68L82.08 2.80L76.40 2.80L76.40 0.24L90.68 0.24L90.68 2.80Z" transform="translate(12 113.48) scale(1.574)"></path></svg>